<mxfile host="Electron" modified="2024-01-10T17:25:32.221Z" agent="Mozilla/5.0 (X11; Linux x86_64) AppleWebKit/537.36 (KHTML, like Gecko) draw.io/22.1.16 Chrome/120.0.6099.109 Electron/28.1.0 Safari/537.36" etag="xI2CzhjkXf1M7aSWouhb" version="22.1.16" type="device">
  <diagram name="Page-1" id="BeeQXuH5mpLVNXQqc5U8">
    <mxGraphModel dx="1247" dy="789" grid="1" gridSize="10" guides="1" tooltips="1" connect="1" arrows="1" fold="1" page="1" pageScale="1" pageWidth="850" pageHeight="1100" math="0" shadow="0">
      <root>
        <mxCell id="0" />
        <mxCell id="1" parent="0" />
        <mxCell id="I0c3L2jA-JhZfiCe1uU5-13" value="" style="edgeStyle=orthogonalEdgeStyle;shape=connector;curved=0;rounded=1;orthogonalLoop=1;jettySize=auto;html=1;labelBackgroundColor=default;strokeColor=#666666;strokeWidth=3;align=center;verticalAlign=middle;fontFamily=Helvetica;fontSize=12;fontColor=#666666;endArrow=openThin;endFill=0;fillColor=#FAE5C7;" edge="1" parent="1" source="I0c3L2jA-JhZfiCe1uU5-7" target="I0c3L2jA-JhZfiCe1uU5-8">
          <mxGeometry relative="1" as="geometry" />
        </mxCell>
        <mxCell id="I0c3L2jA-JhZfiCe1uU5-7" value="Start" style="ellipse;whiteSpace=wrap;html=1;aspect=fixed;strokeColor=#666666;fontColor=#666666;fillColor=#FFFFFF;strokeWidth=3;" vertex="1" parent="1">
          <mxGeometry x="398.75" y="65" width="50" height="50" as="geometry" />
        </mxCell>
        <mxCell id="I0c3L2jA-JhZfiCe1uU5-12" value="" style="edgeStyle=orthogonalEdgeStyle;shape=connector;curved=0;rounded=1;orthogonalLoop=1;jettySize=auto;html=1;labelBackgroundColor=default;strokeColor=#666666;strokeWidth=3;align=center;verticalAlign=middle;fontFamily=Helvetica;fontSize=12;fontColor=#666666;endArrow=openThin;endFill=0;fillColor=#FAE5C7;" edge="1" parent="1" target="I0c3L2jA-JhZfiCe1uU5-10">
          <mxGeometry relative="1" as="geometry">
            <mxPoint x="246.75" y="112" as="sourcePoint" />
          </mxGeometry>
        </mxCell>
        <mxCell id="I0c3L2jA-JhZfiCe1uU5-8" value="Extract &quot;location&quot; key from message &quot;values&quot;" style="rounded=1;whiteSpace=wrap;html=1;strokeColor=#666666;fontColor=#666666;fillColor=#FFFFFF;strokeWidth=3;" vertex="1" parent="1">
          <mxGeometry x="186.75" y="60" width="120" height="60" as="geometry" />
        </mxCell>
        <mxCell id="I0c3L2jA-JhZfiCe1uU5-15" value="" style="edgeStyle=orthogonalEdgeStyle;shape=connector;curved=0;rounded=1;orthogonalLoop=1;jettySize=auto;html=1;labelBackgroundColor=default;strokeColor=#666666;strokeWidth=3;align=center;verticalAlign=middle;fontFamily=Helvetica;fontSize=12;fontColor=#666666;endArrow=openThin;endFill=0;fillColor=#FAE5C7;" edge="1" parent="1" source="I0c3L2jA-JhZfiCe1uU5-10" target="I0c3L2jA-JhZfiCe1uU5-14">
          <mxGeometry relative="1" as="geometry" />
        </mxCell>
        <mxCell id="I0c3L2jA-JhZfiCe1uU5-17" value="" style="edgeStyle=orthogonalEdgeStyle;shape=connector;curved=0;rounded=1;orthogonalLoop=1;jettySize=auto;html=1;labelBackgroundColor=default;strokeColor=#666666;strokeWidth=3;align=center;verticalAlign=middle;fontFamily=Helvetica;fontSize=12;fontColor=#666666;endArrow=openThin;endFill=0;fillColor=#FAE5C7;" edge="1" parent="1" source="I0c3L2jA-JhZfiCe1uU5-10" target="I0c3L2jA-JhZfiCe1uU5-16">
          <mxGeometry relative="1" as="geometry" />
        </mxCell>
        <mxCell id="I0c3L2jA-JhZfiCe1uU5-10" value="&quot;location&quot; is present &lt;br style=&quot;font-size: 11px;&quot;&gt;and exists in the&lt;br style=&quot;font-size: 11px;&quot;&gt;application state." style="rhombus;whiteSpace=wrap;html=1;rounded=0;strokeColor=#666666;strokeWidth=3;align=center;verticalAlign=middle;fontFamily=Helvetica;fontSize=11;fontColor=#666666;fillColor=#FFFFFF;spacingTop=2;" vertex="1" parent="1">
          <mxGeometry x="166" y="150" width="161.5" height="100" as="geometry" />
        </mxCell>
        <mxCell id="I0c3L2jA-JhZfiCe1uU5-52" value="" style="edgeStyle=orthogonalEdgeStyle;shape=connector;curved=0;rounded=1;orthogonalLoop=1;jettySize=auto;html=1;labelBackgroundColor=default;strokeColor=#666666;strokeWidth=3;align=center;verticalAlign=middle;fontFamily=Helvetica;fontSize=12;fontColor=#666666;endArrow=openThin;endFill=0;fillColor=#FAE5C7;" edge="1" parent="1" source="I0c3L2jA-JhZfiCe1uU5-14" target="I0c3L2jA-JhZfiCe1uU5-51">
          <mxGeometry relative="1" as="geometry" />
        </mxCell>
        <mxCell id="I0c3L2jA-JhZfiCe1uU5-14" value="Message can&#39;t be processed as it it&#39;s origin can&#39;t be traced" style="rounded=1;whiteSpace=wrap;html=1;strokeColor=#666666;strokeWidth=3;align=center;verticalAlign=middle;fontFamily=Helvetica;fontSize=11;fontColor=#666666;fillColor=#FFFFFF;" vertex="1" parent="1">
          <mxGeometry x="186.75" y="280" width="120" height="60" as="geometry" />
        </mxCell>
        <mxCell id="I0c3L2jA-JhZfiCe1uU5-24" style="edgeStyle=orthogonalEdgeStyle;shape=connector;curved=0;rounded=1;orthogonalLoop=1;jettySize=auto;html=1;labelBackgroundColor=default;strokeColor=#666666;strokeWidth=3;align=center;verticalAlign=middle;fontFamily=Helvetica;fontSize=12;fontColor=#666666;endArrow=openThin;endFill=0;fillColor=#FAE5C7;" edge="1" parent="1" source="I0c3L2jA-JhZfiCe1uU5-16" target="I0c3L2jA-JhZfiCe1uU5-23">
          <mxGeometry relative="1" as="geometry" />
        </mxCell>
        <mxCell id="I0c3L2jA-JhZfiCe1uU5-16" value="&lt;font style=&quot;&quot; face=&quot;Helvetica&quot;&gt;Find location in the model&lt;/font&gt;" style="rounded=1;whiteSpace=wrap;html=1;strokeColor=#666666;fontColor=#666666;fillColor=#FFFFFF;strokeWidth=3;" vertex="1" parent="1">
          <mxGeometry x="363.75" y="170" width="120" height="60" as="geometry" />
        </mxCell>
        <mxCell id="I0c3L2jA-JhZfiCe1uU5-61" style="edgeStyle=orthogonalEdgeStyle;shape=connector;curved=0;rounded=1;orthogonalLoop=1;jettySize=auto;html=1;labelBackgroundColor=default;strokeColor=#666666;strokeWidth=3;align=center;verticalAlign=middle;fontFamily=Helvetica;fontSize=12;fontColor=#666666;endArrow=openThin;endFill=0;fillColor=#FAE5C7;exitX=0;exitY=0.5;exitDx=0;exitDy=0;" edge="1" parent="1" source="I0c3L2jA-JhZfiCe1uU5-18" target="I0c3L2jA-JhZfiCe1uU5-26">
          <mxGeometry relative="1" as="geometry" />
        </mxCell>
        <mxCell id="I0c3L2jA-JhZfiCe1uU5-62" value="" style="edgeStyle=orthogonalEdgeStyle;shape=connector;curved=0;rounded=1;orthogonalLoop=1;jettySize=auto;html=1;labelBackgroundColor=default;strokeColor=#666666;strokeWidth=3;align=center;verticalAlign=middle;fontFamily=Helvetica;fontSize=12;fontColor=#666666;endArrow=openThin;endFill=0;fillColor=#FAE5C7;" edge="1" parent="1" source="I0c3L2jA-JhZfiCe1uU5-18" target="I0c3L2jA-JhZfiCe1uU5-56">
          <mxGeometry relative="1" as="geometry" />
        </mxCell>
        <mxCell id="I0c3L2jA-JhZfiCe1uU5-18" value="Is the &lt;br&gt;&quot;deviceUUID&quot;&amp;nbsp;&lt;br&gt;registered in the &lt;br&gt;componets?" style="rhombus;whiteSpace=wrap;html=1;rounded=0;strokeColor=#666666;strokeWidth=3;align=center;verticalAlign=middle;fontFamily=Helvetica;fontSize=11;fontColor=#666666;fillColor=#FFFFFF;spacingTop=-6;" vertex="1" parent="1">
          <mxGeometry x="521.44" y="380" width="156.12" height="80" as="geometry" />
        </mxCell>
        <mxCell id="I0c3L2jA-JhZfiCe1uU5-50" style="edgeStyle=orthogonalEdgeStyle;shape=connector;curved=0;rounded=1;orthogonalLoop=1;jettySize=auto;html=1;labelBackgroundColor=default;strokeColor=#666666;strokeWidth=3;align=center;verticalAlign=middle;fontFamily=Helvetica;fontSize=12;fontColor=#666666;endArrow=openThin;endFill=0;fillColor=#FAE5C7;entryX=0.5;entryY=0;entryDx=0;entryDy=0;exitX=1;exitY=0.5;exitDx=0;exitDy=0;" edge="1" parent="1" source="I0c3L2jA-JhZfiCe1uU5-19" target="I0c3L2jA-JhZfiCe1uU5-18">
          <mxGeometry relative="1" as="geometry">
            <Array as="points">
              <mxPoint x="683.75" y="200" />
              <mxPoint x="683.75" y="356" />
              <mxPoint x="598.75" y="356" />
            </Array>
          </mxGeometry>
        </mxCell>
        <mxCell id="I0c3L2jA-JhZfiCe1uU5-19" value="Create new data requriement with null count and null timeout" style="rounded=1;whiteSpace=wrap;html=1;strokeColor=#666666;fontColor=#666666;fillColor=#FFFFFF;strokeWidth=3;spacingTop=-4;" vertex="1" parent="1">
          <mxGeometry x="534.5000000000001" y="170" width="130" height="60" as="geometry" />
        </mxCell>
        <mxCell id="I0c3L2jA-JhZfiCe1uU5-30" value="" style="edgeStyle=orthogonalEdgeStyle;shape=connector;curved=0;rounded=1;orthogonalLoop=1;jettySize=auto;html=1;labelBackgroundColor=default;strokeColor=#666666;strokeWidth=3;align=center;verticalAlign=middle;fontFamily=Helvetica;fontSize=12;fontColor=#666666;endArrow=openThin;endFill=0;fillColor=#FAE5C7;" edge="1" parent="1" source="I0c3L2jA-JhZfiCe1uU5-23" target="I0c3L2jA-JhZfiCe1uU5-28">
          <mxGeometry relative="1" as="geometry" />
        </mxCell>
        <mxCell id="I0c3L2jA-JhZfiCe1uU5-53" style="edgeStyle=orthogonalEdgeStyle;shape=connector;curved=0;rounded=1;orthogonalLoop=1;jettySize=auto;html=1;labelBackgroundColor=default;strokeColor=#666666;strokeWidth=3;align=center;verticalAlign=middle;fontFamily=Helvetica;fontSize=12;fontColor=#666666;endArrow=openThin;endFill=0;fillColor=#FAE5C7;exitX=0.5;exitY=1;exitDx=0;exitDy=0;entryX=1;entryY=0.5;entryDx=0;entryDy=0;" edge="1" parent="1" source="I0c3L2jA-JhZfiCe1uU5-23" target="I0c3L2jA-JhZfiCe1uU5-51">
          <mxGeometry relative="1" as="geometry" />
        </mxCell>
        <mxCell id="I0c3L2jA-JhZfiCe1uU5-23" value="Any data &lt;br&gt;keys left to&lt;br&gt;process?" style="rhombus;whiteSpace=wrap;html=1;rounded=0;strokeColor=#666666;strokeWidth=3;align=center;verticalAlign=middle;fontFamily=Helvetica;fontSize=11;fontColor=#666666;fillColor=#FFFFFF;spacingTop=-1;" vertex="1" parent="1">
          <mxGeometry x="358.375" y="270" width="130.75" height="80" as="geometry" />
        </mxCell>
        <mxCell id="I0c3L2jA-JhZfiCe1uU5-55" style="edgeStyle=orthogonalEdgeStyle;shape=connector;curved=0;rounded=1;orthogonalLoop=1;jettySize=auto;html=1;labelBackgroundColor=default;strokeColor=#666666;strokeWidth=3;align=center;verticalAlign=middle;fontFamily=Helvetica;fontSize=12;fontColor=#666666;endArrow=openThin;endFill=0;fillColor=#FAE5C7;" edge="1" parent="1" source="I0c3L2jA-JhZfiCe1uU5-26" target="I0c3L2jA-JhZfiCe1uU5-51">
          <mxGeometry relative="1" as="geometry" />
        </mxCell>
        <mxCell id="I0c3L2jA-JhZfiCe1uU5-26" value="Update last_reading of the device&lt;br&gt;to message&#39;s &quot;timeStamp&quot;" style="rounded=1;whiteSpace=wrap;html=1;strokeColor=#666666;fontColor=#666666;fillColor=#FFFFFF;strokeWidth=3;" vertex="1" parent="1">
          <mxGeometry x="363.75" y="500.5" width="120" height="60" as="geometry" />
        </mxCell>
        <mxCell id="I0c3L2jA-JhZfiCe1uU5-29" style="edgeStyle=orthogonalEdgeStyle;shape=connector;curved=0;rounded=1;orthogonalLoop=1;jettySize=auto;html=1;labelBackgroundColor=default;strokeColor=#666666;strokeWidth=3;align=center;verticalAlign=middle;fontFamily=Helvetica;fontSize=12;fontColor=#666666;endArrow=openThin;endFill=0;fillColor=#FAE5C7;" edge="1" parent="1" source="I0c3L2jA-JhZfiCe1uU5-28" target="I0c3L2jA-JhZfiCe1uU5-19">
          <mxGeometry relative="1" as="geometry" />
        </mxCell>
        <mxCell id="I0c3L2jA-JhZfiCe1uU5-60" value="" style="edgeStyle=orthogonalEdgeStyle;shape=connector;curved=0;rounded=1;orthogonalLoop=1;jettySize=auto;html=1;labelBackgroundColor=default;strokeColor=#666666;strokeWidth=3;align=center;verticalAlign=middle;fontFamily=Helvetica;fontSize=12;fontColor=#666666;endArrow=openThin;endFill=0;fillColor=#FAE5C7;" edge="1" parent="1" source="I0c3L2jA-JhZfiCe1uU5-28" target="I0c3L2jA-JhZfiCe1uU5-18">
          <mxGeometry relative="1" as="geometry" />
        </mxCell>
        <mxCell id="I0c3L2jA-JhZfiCe1uU5-28" value="Is the key &lt;br&gt;present in the data requirements?" style="rhombus;whiteSpace=wrap;html=1;rounded=0;strokeColor=#666666;strokeWidth=3;align=center;verticalAlign=middle;fontFamily=Helvetica;fontSize=11;fontColor=#666666;fillColor=#FFFFFF;spacingTop=-3;" vertex="1" parent="1">
          <mxGeometry x="534.1250000000001" y="270" width="130.75" height="80" as="geometry" />
        </mxCell>
        <mxCell id="I0c3L2jA-JhZfiCe1uU5-51" value="End" style="ellipse;whiteSpace=wrap;html=1;aspect=fixed;strokeColor=#666666;fontColor=#666666;fillColor=#FFFFFF;strokeWidth=3;" vertex="1" parent="1">
          <mxGeometry x="221.75" y="395" width="50" height="50" as="geometry" />
        </mxCell>
        <mxCell id="I0c3L2jA-JhZfiCe1uU5-59" style="edgeStyle=orthogonalEdgeStyle;shape=connector;curved=0;rounded=1;orthogonalLoop=1;jettySize=auto;html=1;exitX=0;exitY=0.5;exitDx=0;exitDy=0;labelBackgroundColor=default;strokeColor=#666666;strokeWidth=3;align=center;verticalAlign=middle;fontFamily=Helvetica;fontSize=12;fontColor=#666666;endArrow=openThin;endFill=0;fillColor=#FAE5C7;" edge="1" parent="1" source="I0c3L2jA-JhZfiCe1uU5-56" target="I0c3L2jA-JhZfiCe1uU5-26">
          <mxGeometry relative="1" as="geometry" />
        </mxCell>
        <mxCell id="I0c3L2jA-JhZfiCe1uU5-56" value="Create new component&lt;br&gt;from the message &quot;deviceUUID&quot; and append it to data requirement components" style="rounded=1;whiteSpace=wrap;html=1;strokeColor=#666666;fontColor=#666666;fillColor=#FFFFFF;strokeWidth=3;spacingTop=-4;" vertex="1" parent="1">
          <mxGeometry x="529.5000000000001" y="480" width="140" height="101" as="geometry" />
        </mxCell>
      </root>
    </mxGraphModel>
  </diagram>
</mxfile>
